<svg width="18" height="18" viewBox="0 0 18 18" fill="none" xmlns="http://www.w3.org/2000/svg">
<path d="M8.10134 14.5052C8.17058 14.5053 8.23913 14.5212 8.30306 14.5519C8.36699 14.5827 8.42506 14.6277 8.47395 14.6844C8.52284 14.7411 8.5616 14.8084 8.588 14.8824C8.61441 14.9565 8.62795 15.0358 8.62785 15.1159C8.62775 15.196 8.61402 15.2752 8.58743 15.3492C8.56084 15.4231 8.52192 15.4903 8.47289 15.5468C8.42386 15.6034 8.36568 15.6482 8.30167 15.6787C8.23766 15.7093 8.16908 15.7249 8.09984 15.7248C7.96 15.7246 7.82597 15.6601 7.72723 15.5456C7.62849 15.4311 7.57313 15.2759 7.57333 15.1141C7.57353 14.9524 7.62927 14.7974 7.72829 14.6832C7.82731 14.569 7.9615 14.5049 8.10134 14.5052ZM16.3695 10.7343C16.3002 10.7343 16.2317 10.7184 16.1677 10.6877C16.1038 10.657 16.0457 10.6121 15.9968 10.5554C15.9478 10.4987 15.909 10.4315 15.8826 10.3575C15.8561 10.2835 15.8425 10.2041 15.8426 10.1241C15.8426 10.044 15.8563 9.96469 15.8829 9.89072C15.9094 9.81676 15.9483 9.74956 15.9973 9.69297C16.0463 9.63639 16.1044 9.59152 16.1684 9.56092C16.2324 9.53033 16.301 9.51461 16.3702 9.51467C16.5101 9.51478 16.6441 9.57914 16.7429 9.69359C16.8418 9.80803 16.8972 9.96319 16.8971 10.1249C16.897 10.2867 16.8414 10.4417 16.7424 10.556C16.6435 10.6703 16.5093 10.7344 16.3695 10.7343ZM16.3695 8.2395C15.9372 8.23996 15.5227 8.43879 15.217 8.79236C14.9113 9.14593 14.7393 9.62534 14.7389 10.1254C14.7389 10.3275 14.7682 10.5287 14.8252 10.7248L9.43936 14.0411C9.29002 13.7903 9.09019 13.5853 8.8571 13.4437C8.624 13.3021 8.36463 13.2281 8.10134 13.2283C7.47958 13.2283 6.91332 13.6403 6.63882 14.2831L1.80049 11.332C1.28898 11.0215 0.906476 10.0482 0.946977 9.16161C0.967977 8.69925 1.10598 8.34012 1.31673 8.20133C1.45023 8.11458 1.61074 8.12152 1.78174 8.22475L1.81324 8.2447C3.09576 9.02542 7.29133 11.5818 7.46833 11.6764C7.74059 11.823 7.89209 11.882 8.3571 11.6269L17.0302 6.41002C17.1577 6.3545 17.3062 6.21311 17.3062 5.99884C17.3062 5.70217 17.0407 5.58506 17.04 5.58506C16.5465 5.31181 15.7882 4.9015 15.0487 4.50073C13.4677 3.64455 11.6759 2.67473 10.8891 2.19762C10.2096 1.78645 9.66287 2.13343 9.56536 2.20283L9.37636 2.31126C5.83481 4.33678 1.09473 7.05194 0.824725 7.24192C0.342467 7.58196 0.0432122 8.25945 0.00421162 9.10002C-0.0557893 10.4333 0.53147 11.8239 1.37223 12.3331L6.48882 15.3848C6.54518 15.8331 6.73911 16.2429 7.03518 16.5395C7.33124 16.8361 7.70968 16.9995 8.10134 17C8.5291 16.9992 8.93948 16.8042 9.24426 16.4571C9.54903 16.1099 9.72385 15.6383 9.73112 15.1436L15.3667 11.6105C15.6517 11.869 16.0065 12.0104 16.3695 12.0104C16.8018 12.0099 17.2163 11.8111 17.522 11.4575C17.8277 11.1039 17.9996 10.6245 18 10.1245C17.9996 9.62447 17.8277 9.14506 17.522 8.79149C17.2163 8.43792 16.8018 8.23909 16.3695 8.23863" fill="white"/>
</svg>
